<?xml version="1.0" encoding="UTF-8" standalone="no"?>
<!-- Created with Inkscape (http://www.inkscape.org/) -->

<svg
   xmlns:dc="http://purl.org/dc/elements/1.1/"
   xmlns:cc="http://creativecommons.org/ns#"
   xmlns:rdf="http://www.w3.org/1999/02/22-rdf-syntax-ns#"
   xmlns:svg="http://www.w3.org/2000/svg"
   xmlns="http://www.w3.org/2000/svg"
   xmlns:sodipodi="http://sodipodi.sourceforge.net/DTD/sodipodi-0.dtd"
   xmlns:inkscape="http://www.inkscape.org/namespaces/inkscape"
   id="svg2"
   version="1.1"
   inkscape:version="0.48.4 r9939"
   width="531.49605"
   height="630"
   xml:space="preserve"
   sodipodi:docname="e50bigink.pdf"><metadata
     id="metadata8"><rdf:RDF><cc:Work
         rdf:about=""><dc:format>image/svg+xml</dc:format><dc:type
           rdf:resource="http://purl.org/dc/dcmitype/StillImage" /><dc:title></dc:title></cc:Work></rdf:RDF></metadata><defs
     id="defs6"><clipPath
       clipPathUnits="userSpaceOnUse"
       id="clipPath18"><path
         d="m 72,432 288,0 0,-360 -288,0 0,360 z"
         id="path20" /></clipPath><clipPath
       clipPathUnits="userSpaceOnUse"
       id="clipPath28"><path
         d="m 81,148 281,0 0,169 -281,0 0,-169 z"
         id="path30" /></clipPath><clipPath
       clipPathUnits="userSpaceOnUse"
       id="clipPath104"><path
         d="m 72,432 288,0 0,-360 -288,0 0,360 z"
         id="path106" /></clipPath><clipPath
       clipPathUnits="userSpaceOnUse"
       id="clipPath114"><path
         d="m 124,98 218,0 0,304 -218,0 0,-304 z"
         id="path116" /></clipPath><clipPath
       clipPathUnits="userSpaceOnUse"
       id="clipPath206"><path
         d="m 72,432 288,0 0,-360 -288,0 0,360 z"
         id="path208" /></clipPath><clipPath
       clipPathUnits="userSpaceOnUse"
       id="clipPath216"><path
         d="m 128,164 211,0 0,172 -211,0 0,-172 z"
         id="path218" /></clipPath></defs><sodipodi:namedview
     pagecolor="#ffffff"
     bordercolor="#666666"
     borderopacity="1"
     objecttolerance="10"
     gridtolerance="10"
     guidetolerance="10"
     inkscape:pageopacity="0"
     inkscape:pageshadow="2"
     inkscape:window-width="1366"
     inkscape:window-height="718"
     id="namedview4"
     showgrid="false"
     inkscape:zoom="0.8516369"
     inkscape:cx="265.74802"
     inkscape:cy="315"
     inkscape:window-x="0"
     inkscape:window-y="0"
     inkscape:window-maximized="1"
     inkscape:current-layer="g10" /><g
     id="g10"
     inkscape:groupmode="layer"
     inkscape:label="e50bigink"
     transform="matrix(1.25,0,0,-1.25,0,630)"><g
       id="g12" /><path
       d="m 82.672,151.762 11.59,-2.621 11.597,5 11.59,2.859 11.59,4.051 11.602,5 11.589,3.57 11.598,1.668 11.594,4.762 11.59,4.519 11.597,2.379 11.59,4.531 11.602,9.04 11.59,1.191 11.597,7.391 11.59,5.226 11.594,0.961 11.598,7.141 11.589,2.859 11.602,2.141 11.59,2.379 11.59,-0.239 11.597,2.141 11.59,-0.711 11.602,2.859"
       style="fill:none;stroke:#0000ff;stroke-width:1.5;stroke-linecap:round;stroke-linejoin:round;stroke-miterlimit:10;stroke-opacity:1;stroke-dasharray:12, 4.5, 12, 4.5;stroke-dashoffset:0"
       id="path34"
       inkscape:connector-curvature="0" /><path
       d="m 82.672,268.672 11.59,-5.242 11.597,2.621 11.59,-0.242 11.59,1.429 11.602,2.141 11.589,0.723 11.598,-2.391 11.594,1.668 11.59,2.621 11.597,2.141 11.59,2.859 11.602,8.328 11.59,0.481 11.597,6.671 11.59,5.231 11.594,-0.473 11.598,8.09 11.589,2.152 11.602,0.711 11.59,2.618 11.59,0.242 11.597,2.621 11.59,-1.434 11.602,3.332"
       style="fill:none;stroke:#ff0000;stroke-width:1.5;stroke-linecap:round;stroke-linejoin:round;stroke-miterlimit:10;stroke-opacity:1;stroke-dasharray:12, 4.5, 12, 4.5;stroke-dashoffset:0"
       id="path36"
       inkscape:connector-curvature="0" /><g
       id="g42"><path
         d="m 117.449,72 231.879,0"
         style="fill:none;stroke:#000000;stroke-opacity:1;stroke-width:0.75;stroke-linecap:round;stroke-linejoin:round;stroke-miterlimit:10;stroke-dasharray:none"
         id="path44" /><path
         d="m 117.449,72 0,-7.199"
         style="fill:none;stroke:#000000;stroke-opacity:1;stroke-width:0.75;stroke-linecap:round;stroke-linejoin:round;stroke-miterlimit:10;stroke-dasharray:none"
         id="path46" /><path
         d="m 175.422,72 0,-7.199"
         style="fill:none;stroke:#000000;stroke-opacity:1;stroke-width:0.75;stroke-linecap:round;stroke-linejoin:round;stroke-miterlimit:10;stroke-dasharray:none"
         id="path48" /><path
         d="m 233.391,72 0,-7.199"
         style="fill:none;stroke:#000000;stroke-opacity:1;stroke-width:0.75;stroke-linecap:round;stroke-linejoin:round;stroke-miterlimit:10;stroke-dasharray:none"
         id="path50" /><path
         d="m 291.359,72 0,-7.199"
         style="fill:none;stroke:#000000;stroke-opacity:1;stroke-width:0.75;stroke-linecap:round;stroke-linejoin:round;stroke-miterlimit:10;stroke-dasharray:none"
         id="path52" /><path
         d="m 349.328,72 0,-7.199"
         style="fill:none;stroke:#000000;stroke-opacity:1;stroke-width:0.75;stroke-linecap:round;stroke-linejoin:round;stroke-miterlimit:10;stroke-dasharray:none"
         id="path54" /><path
         d="m 108.199,46.188 0,11.453 -1.172,0 c -0.531,-1.829 -0.703,-1.985 -3.031,-2.266 l 0,-1.219 2.516,0 0,-8.078 1.687,0 0,0.11 z m 11.485,5.937 c 0,3.547 -1.36,5.516 -3.954,5.516 -2.156,0 -3.843,-1.641 -3.843,-3.86 0,-2.125 1.578,-3.656 3.625,-3.656 1.078,0 1.953,0.422 2.687,1.297 l -0.234,0.094 c -0.016,-2.766 -0.766,-4.204 -2.391,-4.204 -0.984,0 -1.547,0.516 -1.781,1.704 l -1.688,0 c 0.282,-1.969 1.657,-3.172 3.375,-3.172 2.657,0 4.204,2.359 4.204,6.281 z m -1.797,1.687 c 0,-1.39 -0.844,-2.218 -2.219,-2.218 -1.359,0 -2.078,0.765 -2.078,2.297 0,1.437 0.844,2.297 2.125,2.297 1.312,0 2.172,-0.907 2.172,-2.376 z m 10.703,-1.687 c 0,3.547 -1.36,5.516 -3.953,5.516 -2.157,0 -3.844,-1.641 -3.844,-3.86 0,-2.125 1.578,-3.656 3.625,-3.656 1.078,0 1.953,0.422 2.687,1.297 l -0.234,0.094 c -0.016,-2.766 -0.766,-4.204 -2.391,-4.204 -0.984,0 -1.546,0.516 -1.781,1.704 l -1.687,0 c 0.281,-1.969 1.656,-3.172 3.375,-3.172 2.656,0 4.203,2.359 4.203,6.281 z m -1.797,1.687 c 0,-1.39 -0.844,-2.218 -2.219,-2.218 -1.359,0 -2.078,0.765 -2.078,2.297 0,1.437 0.844,2.297 2.125,2.297 1.313,0 2.172,-0.907 2.172,-2.376 z m 10.781,-3.859 c 0,2.235 -1.625,3.828 -3.797,3.828 -0.797,0 -1.562,-0.25 -1.922,-0.515 l 0.391,2.531 4.734,0 0,1.609 -6.125,0 -0.875,-6.156 1.516,0 c 0.688,0.812 1.141,1.047 2.016,1.047 1.531,0 2.343,-0.859 2.343,-2.531 0,-1.641 -0.796,-2.454 -2.343,-2.454 -1.219,0 -1.844,0.516 -2.219,1.907 l -1.672,0 c 0.484,-2.375 1.906,-3.375 3.922,-3.375 2.297,0 4.031,1.703 4.031,4.109 z"
         style="fill:#000000;fill-opacity:1;fill-rule:nonzero;stroke:none"
         id="path56" /><path
         d="m 170.375,54.203 c 0,1.922 -1.609,3.438 -3.75,3.438 -2.328,0 -3.813,-1.282 -3.891,-4.157 l 1.688,0 c 0.109,2.016 0.766,2.704 2.156,2.704 1.281,0 2.094,-0.797 2.094,-2.016 0,-0.891 -0.5,-1.578 -1.5,-2.156 l -1.484,-0.828 c -2.36,-1.344 -3.079,-2.485 -3.219,-5.11 l 7.828,0 0,1.61 -5.953,0 c 0.14,0.828 0.609,1.328 2,2.156 l 1.609,0.859 c 1.578,0.844 2.422,2.109 2.422,3.5 z m 8.844,-2.562 c 0,3.937 -1.375,6 -3.828,6 -2.453,0 -3.86,-2.094 -3.86,-5.907 0,-3.812 1.422,-5.89 3.86,-5.89 2.39,0 3.828,2.078 3.828,5.797 z m -1.703,0.14 c 0,-3.219 -0.594,-4.547 -2.157,-4.547 -1.5,0 -2.125,1.391 -2.125,4.485 0,3.109 0.625,4.453 2.157,4.453 1.515,0 2.125,-1.36 2.125,-4.391 z m 10.609,-0.14 c 0,3.937 -1.375,6 -3.828,6 -2.453,0 -3.859,-2.094 -3.859,-5.907 0,-3.812 1.421,-5.89 3.859,-5.89 2.391,0 3.828,2.078 3.828,5.797 z m -1.703,0.14 c 0,-3.219 -0.594,-4.547 -2.156,-4.547 -1.5,0 -2.125,1.391 -2.125,4.485 0,3.109 0.625,4.453 2.156,4.453 1.515,0 2.125,-1.36 2.125,-4.391 z m 10.609,-0.14 c 0,3.937 -1.375,6 -3.828,6 -2.453,0 -3.859,-2.094 -3.859,-5.907 0,-3.812 1.422,-5.89 3.859,-5.89 2.391,0 3.828,2.078 3.828,5.797 z m -1.703,0.14 c 0,-3.219 -0.594,-4.547 -2.156,-4.547 -1.5,0 -2.125,1.391 -2.125,4.485 0,3.109 0.625,4.453 2.156,4.453 1.516,0 2.125,-1.36 2.125,-4.391 z"
         style="fill:#000000;fill-opacity:1;fill-rule:nonzero;stroke:none"
         id="path58" /><path
         d="m 228.348,54.203 c 0,1.922 -1.61,3.438 -3.75,3.438 -2.328,0 -3.813,-1.282 -3.891,-4.157 l 1.688,0 c 0.109,2.016 0.765,2.704 2.156,2.704 1.281,0 2.094,-0.797 2.094,-2.016 0,-0.891 -0.5,-1.578 -1.5,-2.156 l -1.485,-0.828 c -2.359,-1.344 -3.078,-2.485 -3.219,-5.11 l 7.829,0 0,1.61 -5.954,0 c 0.141,0.828 0.61,1.328 2,2.156 l 1.61,0.859 c 1.578,0.844 2.422,2.109 2.422,3.5 z m 8.843,-2.562 c 0,3.937 -1.375,6 -3.828,6 -2.453,0 -3.859,-2.094 -3.859,-5.907 0,-3.812 1.422,-5.89 3.859,-5.89 2.391,0 3.828,2.078 3.828,5.797 z m -1.703,0.14 c 0,-3.219 -0.593,-4.547 -2.156,-4.547 -1.5,0 -2.125,1.391 -2.125,4.485 0,3.109 0.625,4.453 2.156,4.453 1.516,0 2.125,-1.36 2.125,-4.391 z m 10.61,-0.14 c 0,3.937 -1.375,6 -3.828,6 -2.454,0 -3.86,-2.094 -3.86,-5.907 0,-3.812 1.422,-5.89 3.86,-5.89 2.39,0 3.828,2.078 3.828,5.797 z m -1.703,0.14 c 0,-3.219 -0.594,-4.547 -2.157,-4.547 -1.5,0 -2.125,1.391 -2.125,4.485 0,3.109 0.625,4.453 2.157,4.453 1.515,0 2.125,-1.36 2.125,-4.391 z m 10.718,-1.828 c 0,2.235 -1.625,3.828 -3.797,3.828 -0.796,0 -1.562,-0.25 -1.921,-0.515 l 0.39,2.531 4.735,0 0,1.609 -6.125,0 -0.875,-6.156 1.515,0 c 0.688,0.812 1.141,1.047 2.016,1.047 1.531,0 2.344,-0.859 2.344,-2.531 0,-1.641 -0.797,-2.454 -2.344,-2.454 -1.219,0 -1.844,0.516 -2.219,1.907 l -1.672,0 c 0.485,-2.375 1.906,-3.375 3.922,-3.375 2.297,0 4.031,1.703 4.031,4.109 z"
         style="fill:#000000;fill-opacity:1;fill-rule:nonzero;stroke:none"
         id="path60" /><path
         d="m 286.316,54.203 c 0,1.922 -1.609,3.438 -3.75,3.438 -2.328,0 -3.812,-1.282 -3.89,-4.157 l 1.687,0 c 0.11,2.016 0.766,2.704 2.157,2.704 1.281,0 2.093,-0.797 2.093,-2.016 0,-0.891 -0.5,-1.578 -1.5,-2.156 l -1.484,-0.828 c -2.359,-1.344 -3.078,-2.485 -3.219,-5.11 l 7.828,0 0,1.61 -5.953,0 c 0.141,0.828 0.61,1.328 2,2.156 l 1.61,0.859 c 1.578,0.844 2.421,2.109 2.421,3.5 z m 8.844,-2.562 c 0,3.937 -1.375,6 -3.828,6 -2.453,0 -3.859,-2.094 -3.859,-5.907 0,-3.812 1.422,-5.89 3.859,-5.89 2.391,0 3.828,2.078 3.828,5.797 z m -1.703,0.14 c 0,-3.219 -0.594,-4.547 -2.156,-4.547 -1.5,0 -2.125,1.391 -2.125,4.485 0,3.109 0.625,4.453 2.156,4.453 1.516,0 2.125,-1.36 2.125,-4.391 z m 8.063,-5.593 0,11.453 -1.172,0 c -0.532,-1.829 -0.703,-1.985 -3.032,-2.266 l 0,-1.219 2.516,0 0,-8.078 1.688,0 0,0.11 z m 11.453,5.453 c 0,3.937 -1.375,6 -3.828,6 -2.454,0 -3.86,-2.094 -3.86,-5.907 0,-3.812 1.422,-5.89 3.86,-5.89 2.39,0 3.828,2.078 3.828,5.797 z m -1.703,0.14 c 0,-3.219 -0.594,-4.547 -2.157,-4.547 -1.5,0 -2.125,1.391 -2.125,4.485 0,3.109 0.625,4.453 2.157,4.453 1.515,0 2.125,-1.36 2.125,-4.391 z"
         style="fill:#000000;fill-opacity:1;fill-rule:nonzero;stroke:none"
         id="path62" /><path
         d="m 344.285,54.203 c 0,1.922 -1.609,3.438 -3.75,3.438 -2.328,0 -3.812,-1.282 -3.89,-4.157 l 1.687,0 c 0.109,2.016 0.766,2.704 2.156,2.704 1.282,0 2.094,-0.797 2.094,-2.016 0,-0.891 -0.5,-1.578 -1.5,-2.156 l -1.484,-0.828 c -2.36,-1.344 -3.078,-2.485 -3.219,-5.11 l 7.828,0 0,1.61 -5.953,0 c 0.141,0.828 0.609,1.328 2,2.156 l 1.609,0.859 c 1.578,0.844 2.422,2.109 2.422,3.5 z m 8.844,-2.562 c 0,3.937 -1.375,6 -3.828,6 -2.453,0 -3.86,-2.094 -3.86,-5.907 0,-3.812 1.422,-5.89 3.86,-5.89 2.39,0 3.828,2.078 3.828,5.797 z m -1.703,0.14 c 0,-3.219 -0.594,-4.547 -2.156,-4.547 -1.5,0 -2.125,1.391 -2.125,4.485 0,3.109 0.625,4.453 2.156,4.453 1.515,0 2.125,-1.36 2.125,-4.391 z m 8.062,-5.593 0,11.453 -1.172,0 c -0.531,-1.829 -0.703,-1.985 -3.031,-2.266 l 0,-1.219 2.516,0 0,-8.078 1.687,0 0,0.11 z m 11.563,3.765 c 0,2.235 -1.625,3.828 -3.797,3.828 -0.797,0 -1.563,-0.25 -1.922,-0.515 l 0.391,2.531 4.734,0 0,1.609 -6.125,0 -0.875,-6.156 1.516,0 c 0.687,0.812 1.14,1.047 2.015,1.047 1.532,0 2.344,-0.859 2.344,-2.531 0,-1.641 -0.797,-2.454 -2.344,-2.454 -1.218,0 -1.843,0.516 -2.218,1.907 l -1.672,0 c 0.484,-2.375 1.906,-3.375 3.922,-3.375 2.296,0 4.031,1.703 4.031,4.109 z"
         style="fill:#000000;fill-opacity:1;fill-rule:nonzero;stroke:none"
         id="path64" /><path
         d="m 72,85.328 0,333.344"
         style="fill:none;stroke:#000000;stroke-opacity:1;stroke-width:0.75;stroke-linecap:round;stroke-linejoin:round;stroke-miterlimit:10;stroke-dasharray:none"
         id="path66" /><path
         d="m 72,85.328 -7.199,0"
         style="fill:none;stroke:#000000;stroke-opacity:1;stroke-width:0.75;stroke-linecap:round;stroke-linejoin:round;stroke-miterlimit:10;stroke-dasharray:none"
         id="path68" /><path
         d="m 72,132.949 -7.199,0"
         style="fill:none;stroke:#000000;stroke-opacity:1;stroke-width:0.75;stroke-linecap:round;stroke-linejoin:round;stroke-miterlimit:10;stroke-dasharray:none"
         id="path70" /><path
         d="m 72,180.57 -7.199,0"
         style="fill:none;stroke:#000000;stroke-opacity:1;stroke-width:0.75;stroke-linecap:round;stroke-linejoin:round;stroke-miterlimit:10;stroke-dasharray:none"
         id="path72" /><path
         d="m 72,228.191 -7.199,0"
         style="fill:none;stroke:#000000;stroke-opacity:1;stroke-width:0.75;stroke-linecap:round;stroke-linejoin:round;stroke-miterlimit:10;stroke-dasharray:none"
         id="path74" /><path
         d="m 72,275.809 -7.199,0"
         style="fill:none;stroke:#000000;stroke-opacity:1;stroke-width:0.75;stroke-linecap:round;stroke-linejoin:round;stroke-miterlimit:10;stroke-dasharray:none"
         id="path76" /><path
         d="m 72,323.43 -7.199,0"
         style="fill:none;stroke:#000000;stroke-opacity:1;stroke-width:0.75;stroke-linecap:round;stroke-linejoin:round;stroke-miterlimit:10;stroke-dasharray:none"
         id="path78" /><path
         d="m 72,371.051 -7.199,0"
         style="fill:none;stroke:#000000;stroke-opacity:1;stroke-width:0.75;stroke-linecap:round;stroke-linejoin:round;stroke-miterlimit:10;stroke-dasharray:none"
         id="path80" /><path
         d="m 72,418.672 -7.199,0"
         style="fill:none;stroke:#000000;stroke-opacity:1;stroke-width:0.75;stroke-linecap:round;stroke-linejoin:round;stroke-miterlimit:10;stroke-dasharray:none"
         id="path82" /><path
         d="m 50.957,89.156 c 0,1.922 -1.609,3.438 -3.75,3.438 -2.328,0 -3.812,-1.282 -3.891,-4.156 l 1.688,0 c 0.109,2.015 0.766,2.703 2.156,2.703 1.281,0 2.094,-0.797 2.094,-2.016 0,-0.891 -0.5,-1.578 -1.5,-2.156 L 46.27,86.141 c -2.36,-1.344 -3.079,-2.485 -3.219,-5.11 l 7.828,0 0,1.61 -5.953,0 c 0.14,0.828 0.609,1.328 2,2.156 l 1.609,0.859 c 1.578,0.844 2.422,2.11 2.422,3.5 z m 9.063,-5.297 0,1.375 -1.688,0 0,7.36 -1.25,0 -5.219,-7.219 0,-1.625 4.797,0 0,-2.719 1.672,0 0,2.719 1.688,0 0,0.109 z m -3.219,1.375 -3.313,0 3.407,4.766 -0.235,0.094 0,-4.86 0.141,0 z"
         style="fill:#000000;fill-opacity:1;fill-rule:nonzero;stroke:none"
         id="path84" /><path
         d="m 50.957,136.766 c 0,1.922 -1.609,3.437 -3.75,3.437 -2.328,0 -3.812,-1.281 -3.891,-4.156 l 1.688,0 c 0.109,2.015 0.766,2.703 2.156,2.703 1.281,0 2.094,-0.797 2.094,-2.016 0,-0.89 -0.5,-1.578 -1.5,-2.156 L 46.27,133.75 c -2.36,-1.344 -3.079,-2.484 -3.219,-5.109 l 7.828,0 0,1.609 -5.953,0 c 0.14,0.828 0.609,1.328 2,2.156 l 1.609,0.86 c 1.578,0.843 2.422,2.109 2.422,3.5 z m 8.953,-4.5 c 0,2.125 -1.578,3.656 -3.609,3.656 -1.125,0 -2.11,-0.469 -2.719,-1.297 l 0.234,-0.078 c 0.016,2.765 0.797,4.187 2.407,4.187 0.984,0 1.531,-0.515 1.781,-1.703 l 1.672,0 c -0.281,1.969 -1.625,3.172 -3.36,3.172 -2.64,0 -4.203,-2.328 -4.203,-6.281 0,-3.531 1.36,-5.516 3.953,-5.516 2.157,0 3.844,1.641 3.844,3.86 z m -1.719,-0.11 c 0,-1.422 -0.812,-2.281 -2.109,-2.281 -1.312,0 -2.172,0.906 -2.172,2.359 0,1.422 0.828,2.219 2.219,2.219 1.359,0 2.062,-0.765 2.062,-2.297 z"
         style="fill:#000000;fill-opacity:1;fill-rule:nonzero;stroke:none"
         id="path86" /><path
         d="m 50.957,184.387 c 0,1.922 -1.609,3.437 -3.75,3.437 -2.328,0 -3.812,-1.281 -3.891,-4.156 l 1.688,0 c 0.109,2.016 0.766,2.703 2.156,2.703 1.281,0 2.094,-0.797 2.094,-2.016 0,-0.89 -0.5,-1.578 -1.5,-2.156 l -1.484,-0.828 c -2.36,-1.344 -3.079,-2.484 -3.219,-5.109 l 7.828,0 0,1.609 -5.953,0 c 0.14,0.828 0.609,1.328 2,2.156 l 1.609,0.86 c 1.578,0.843 2.422,2.109 2.422,3.5 z m 8.953,-4.813 c 0,1.266 -0.781,2.25 -1.844,2.766 1.016,0.625 1.438,1.281 1.438,2.359 0,1.766 -1.516,3.125 -3.531,3.125 -2,0 -3.563,-1.359 -3.563,-3.125 0,-1.062 0.422,-1.719 1.438,-2.359 -1.047,-0.516 -1.828,-1.5 -1.828,-2.75 0,-2.078 1.703,-3.563 3.953,-3.563 2.234,0 3.937,1.485 3.937,3.547 z m -2.125,5.094 c 0,-1.063 -0.64,-1.656 -1.812,-1.656 -1.188,0 -1.844,0.593 -1.844,1.672 0,1.078 0.656,1.671 1.844,1.671 1.187,0 1.812,-0.593 1.812,-1.687 z m 0.406,-5.109 c 0,-1.344 -0.812,-2.063 -2.25,-2.063 -1.39,0 -2.218,0.734 -2.218,2.063 0,1.328 0.828,2.046 2.25,2.046 1.406,0 2.218,-0.718 2.218,-2.046 z"
         style="fill:#000000;fill-opacity:1;fill-rule:nonzero;stroke:none"
         id="path88" /><path
         d="m 50.879,227.285 c 0,1.375 -0.688,2.297 -2.047,2.75 l 0,-0.219 c 1.063,0.422 1.719,1.266 1.719,2.407 0,1.937 -1.422,3.218 -3.594,3.218 -2.281,0 -3.641,-1.343 -3.687,-3.875 l 1.671,0 c 0.032,1.782 0.594,2.422 2.032,2.422 1.25,0 1.859,-0.625 1.859,-1.828 0,-1.203 -0.375,-1.594 -2.781,-1.594 l 0,-1.406 0.906,0 c 1.563,0 2.219,-0.625 2.219,-1.89 0,-1.422 -0.735,-2.157 -2.219,-2.157 -1.531,0 -2.156,0.657 -2.25,2.407 l -1.687,0 c 0.187,-2.625 1.578,-3.875 3.89,-3.875 2.344,0 3.969,1.5 3.969,3.64 z m 8.922,2.156 c 0,3.938 -1.375,6 -3.828,6 -2.453,0 -3.86,-2.093 -3.86,-5.906 0,-3.812 1.422,-5.89 3.86,-5.89 2.39,0 3.828,2.078 3.828,5.796 z m -1.703,0.141 c 0,-3.219 -0.594,-4.547 -2.157,-4.547 -1.5,0 -2.125,1.391 -2.125,4.485 0,3.109 0.625,4.453 2.157,4.453 1.515,0 2.125,-1.36 2.125,-4.391 z"
         style="fill:#000000;fill-opacity:1;fill-rule:nonzero;stroke:none"
         id="path90" /><path
         d="m 50.879,274.906 c 0,1.375 -0.688,2.297 -2.047,2.75 l 0,-0.218 c 1.063,0.421 1.719,1.265 1.719,2.406 0,1.937 -1.422,3.218 -3.594,3.218 -2.281,0 -3.641,-1.343 -3.687,-3.874 l 1.671,0 c 0.032,1.781 0.594,2.421 2.032,2.421 1.25,0 1.859,-0.625 1.859,-1.828 0,-1.203 -0.375,-1.593 -2.781,-1.593 l 0,-1.407 0.906,0 c 1.563,0 2.219,-0.625 2.219,-1.89 0,-1.422 -0.735,-2.157 -2.219,-2.157 -1.531,0 -2.156,0.657 -2.25,2.407 l -1.687,0 c 0.187,-2.625 1.578,-3.875 3.89,-3.875 2.344,0 3.969,1.5 3.969,3.64 z m 8.984,4.719 c 0,1.922 -1.609,3.437 -3.75,3.437 -2.328,0 -3.812,-1.281 -3.89,-4.156 l 1.687,0 c 0.11,2.016 0.766,2.703 2.156,2.703 1.282,0 2.094,-0.797 2.094,-2.015 0,-0.891 -0.5,-1.578 -1.5,-2.156 l -1.484,-0.829 c -2.36,-1.343 -3.078,-2.484 -3.219,-5.109 l 7.828,0 0,1.609 -5.953,0 c 0.141,0.829 0.609,1.329 2,2.157 l 1.609,0.859 c 1.579,0.844 2.422,2.109 2.422,3.5 z"
         style="fill:#000000;fill-opacity:1;fill-rule:nonzero;stroke:none"
         id="path92" /><path
         d="m 50.879,322.527 c 0,1.375 -0.688,2.297 -2.047,2.75 l 0,-0.218 c 1.063,0.421 1.719,1.265 1.719,2.406 0,1.937 -1.422,3.219 -3.594,3.219 -2.281,0 -3.641,-1.344 -3.687,-3.875 l 1.671,0 c 0.032,1.781 0.594,2.421 2.032,2.421 1.25,0 1.859,-0.625 1.859,-1.828 0,-1.203 -0.375,-1.593 -2.781,-1.593 l 0,-1.407 0.906,0 c 1.563,0 2.219,-0.625 2.219,-1.89 0,-1.422 -0.735,-2.157 -2.219,-2.157 -1.531,0 -2.156,0.657 -2.25,2.407 l -1.687,0 c 0.187,-2.625 1.578,-3.875 3.89,-3.875 2.344,0 3.969,1.5 3.969,3.64 z m 9.141,-0.578 0,1.375 -1.688,0 0,7.36 -1.25,0 -5.219,-7.219 0,-1.625 4.797,0 0,-2.719 1.672,0 0,2.719 1.688,0 0,0.109 z m -3.219,1.375 -3.313,0 3.407,4.766 -0.235,0.094 0,-4.86 0.141,0 z"
         style="fill:#000000;fill-opacity:1;fill-rule:nonzero;stroke:none"
         id="path94" /><path
         d="m 50.879,370.145 c 0,1.375 -0.688,2.296 -2.047,2.75 l 0,-0.219 c 1.063,0.422 1.719,1.265 1.719,2.406 0,1.938 -1.422,3.219 -3.594,3.219 -2.281,0 -3.641,-1.344 -3.687,-3.875 l 1.671,0 c 0.032,1.781 0.594,2.422 2.032,2.422 1.25,0 1.859,-0.625 1.859,-1.828 0,-1.204 -0.375,-1.594 -2.781,-1.594 l 0,-1.406 0.906,0 c 1.563,0 2.219,-0.625 2.219,-1.891 0,-1.422 -0.735,-2.156 -2.219,-2.156 -1.531,0 -2.156,0.656 -2.25,2.406 l -1.687,0 c 0.187,-2.625 1.578,-3.875 3.89,-3.875 2.344,0 3.969,1.5 3.969,3.641 z m 9.031,0.218 c 0,2.125 -1.578,3.657 -3.609,3.657 -1.125,0 -2.11,-0.469 -2.719,-1.297 l 0.234,-0.078 c 0.016,2.765 0.797,4.187 2.407,4.187 0.984,0 1.531,-0.516 1.781,-1.703 l 1.672,0 c -0.281,1.969 -1.625,3.172 -3.36,3.172 -2.64,0 -4.203,-2.328 -4.203,-6.281 0,-3.532 1.36,-5.516 3.953,-5.516 2.157,0 3.844,1.641 3.844,3.859 z m -1.719,-0.109 c 0,-1.422 -0.812,-2.281 -2.109,-2.281 -1.312,0 -2.172,0.906 -2.172,2.359 0,1.422 0.828,2.219 2.219,2.219 1.359,0 2.062,-0.766 2.062,-2.297 z"
         style="fill:#000000;fill-opacity:1;fill-rule:nonzero;stroke:none"
         id="path96" /><path
         d="m 50.879,417.766 c 0,1.375 -0.688,2.296 -2.047,2.75 l 0,-0.219 c 1.063,0.422 1.719,1.265 1.719,2.406 0,1.938 -1.422,3.219 -3.594,3.219 -2.281,0 -3.641,-1.344 -3.687,-3.875 l 1.671,0 c 0.032,1.781 0.594,2.422 2.032,2.422 1.25,0 1.859,-0.625 1.859,-1.828 0,-1.203 -0.375,-1.594 -2.781,-1.594 l 0,-1.406 0.906,0 c 1.563,0 2.219,-0.625 2.219,-1.891 0,-1.422 -0.735,-2.156 -2.219,-2.156 -1.531,0 -2.156,0.656 -2.25,2.406 l -1.687,0 c 0.187,-2.625 1.578,-3.875 3.89,-3.875 2.344,0 3.969,1.5 3.969,3.641 z m 9.031,-0.094 c 0,1.266 -0.781,2.25 -1.844,2.766 1.016,0.624 1.438,1.281 1.438,2.359 0,1.765 -1.516,3.125 -3.531,3.125 -2,0 -3.563,-1.36 -3.563,-3.125 0,-1.063 0.422,-1.719 1.438,-2.359 -1.047,-0.516 -1.828,-1.5 -1.828,-2.75 0,-2.079 1.703,-3.563 3.953,-3.563 2.234,0 3.937,1.484 3.937,3.547 z m -2.125,5.094 c 0,-1.063 -0.64,-1.657 -1.812,-1.657 -1.188,0 -1.844,0.594 -1.844,1.672 0,1.078 0.656,1.672 1.844,1.672 1.187,0 1.812,-0.594 1.812,-1.687 z m 0.406,-5.11 c 0,-1.344 -0.812,-2.062 -2.25,-2.062 -1.39,0 -2.218,0.734 -2.218,2.062 0,1.328 0.828,2.047 2.25,2.047 1.406,0 2.218,-0.719 2.218,-2.047 z"
         style="fill:#000000;fill-opacity:1;fill-rule:nonzero;stroke:none"
         id="path98" /></g><g
       id="g100"><g
         id="g102"
         clip-path="url(#clipPath104)"><g
           id="g108"><g
             id="g110"><g
               id="g112"
               clip-path="url(#clipPath114)"><g
                 id="g118"><path
                   d="m 129.039,164.859 115.949,33.5 92.75,15.36"
                   style="fill:none;stroke:#0000ff;stroke-opacity:1;stroke-width:2.25;stroke-linecap:round;stroke-linejoin:round;stroke-miterlimit:10;stroke-dasharray:15.75,11.25,15.75,11.25;stroke-dashoffset:0"
                   id="path120" /><path
                   d="m 129.117,168.898 c -2.297,0 -4.125,-1.781 -4.125,-4.015 0,-2.266 1.813,-4.078 4.047,-4.078 2.234,0 4.063,1.812 4.063,4.047 0,2.218 -1.829,4.046 -3.985,4.046 z"
                   style="fill:#0000ff;fill-opacity:1;fill-rule:nonzero;stroke:none"
                   id="path122" /><path
                   d="m 245.055,202.406 c -2.297,0 -4.125,-1.781 -4.125,-4.015 0,-2.266 1.812,-4.079 4.047,-4.079 2.234,0 4.062,1.813 4.062,4.047 0,2.219 -1.828,4.047 -3.984,4.047 z"
                   style="fill:#0000ff;fill-opacity:1;fill-rule:nonzero;stroke:none"
                   id="path124" /><path
                   d="m 337.816,217.766 c -2.296,0 -4.125,-1.782 -4.125,-4.016 0,-2.266 1.813,-4.078 4.047,-4.078 2.235,0 4.063,1.812 4.063,4.047 0,2.219 -1.828,4.047 -3.985,4.047 z"
                   style="fill:#0000ff;fill-opacity:1;fill-rule:nonzero;stroke:none"
                   id="path126" /><path
                   d="m 129.039,101.359 115.949,30.141 92.75,13.559"
                   style="fill:none;stroke:#0000ff;stroke-opacity:1;stroke-width:0.75;stroke-linecap:round;stroke-linejoin:round;stroke-miterlimit:10;stroke-dasharray:5.25,3.75,5.25,3.75;stroke-dashoffset:0"
                   id="path128" /><path
                   d="m 129.094,104.066 c -1.532,0 -2.75,-1.187 -2.75,-2.671 0,-1.516 1.203,-2.735 2.703,-2.735 1.484,0 2.703,1.219 2.703,2.703 0,1.485 -1.219,2.703 -2.656,2.703 z"
                   style="fill:#0000ff;fill-opacity:1;fill-rule:nonzero;stroke:none"
                   id="path130" /><path
                   d="m 245.035,134.195 c -1.531,0 -2.75,-1.187 -2.75,-2.672 0,-1.515 1.203,-2.734 2.703,-2.734 1.485,0 2.703,1.219 2.703,2.703 0,1.485 -1.218,2.703 -2.656,2.703 z"
                   style="fill:#0000ff;fill-opacity:1;fill-rule:nonzero;stroke:none"
                   id="path132" /><path
                   d="m 337.797,147.766 c -1.531,0 -2.75,-1.188 -2.75,-2.672 0,-1.516 1.203,-2.735 2.703,-2.735 1.484,0 2.703,1.219 2.703,2.703 0,1.485 -1.219,2.704 -2.656,2.704 z"
                   style="fill:#0000ff;fill-opacity:1;fill-rule:nonzero;stroke:none"
                   id="path134" /><path
                   d="m 129.039,156.789 115.949,33.699 92.75,15.543"
                   style="fill:none;stroke:#0000ff;stroke-opacity:1;stroke-width:0.75;stroke-linecap:round;stroke-linejoin:round;stroke-miterlimit:10;stroke-dasharray:5.25,3.75,5.25,3.75;stroke-dashoffset:0"
                   id="path136" /><path
                   d="m 129.094,159.488 c -1.532,0 -2.75,-1.187 -2.75,-2.672 0,-1.515 1.203,-2.734 2.703,-2.734 1.484,0 2.703,1.219 2.703,2.703 0,1.485 -1.219,2.703 -2.656,2.703 z"
                   style="fill:#0000ff;fill-opacity:1;fill-rule:nonzero;stroke:none"
                   id="path138" /><path
                   d="m 245.035,193.188 c -1.531,0 -2.75,-1.188 -2.75,-2.672 0,-1.516 1.203,-2.735 2.703,-2.735 1.485,0 2.703,1.219 2.703,2.703 0,1.485 -1.218,2.704 -2.656,2.704 z"
                   style="fill:#0000ff;fill-opacity:1;fill-rule:nonzero;stroke:none"
                   id="path140" /><path
                   d="m 337.797,208.727 c -1.531,0 -2.75,-1.188 -2.75,-2.672 0,-1.516 1.203,-2.735 2.703,-2.735 1.484,0 2.703,1.219 2.703,2.703 0,1.485 -1.219,2.704 -2.656,2.704 z"
                   style="fill:#0000ff;fill-opacity:1;fill-rule:nonzero;stroke:none"
                   id="path142" /><path
                   d="m 129.039,239.16 115.949,34.828 92.75,16.051"
                   style="fill:none;stroke:#0000ff;stroke-opacity:1;stroke-width:0.75;stroke-linecap:round;stroke-linejoin:round;stroke-miterlimit:10;stroke-dasharray:5.25,3.75,5.25,3.75;stroke-dashoffset:0"
                   id="path144" /><path
                   d="m 129.094,241.855 c -1.532,0 -2.75,-1.187 -2.75,-2.671 0,-1.516 1.203,-2.735 2.703,-2.735 1.484,0 2.703,1.219 2.703,2.703 0,1.485 -1.219,2.703 -2.656,2.703 z"
                   style="fill:#0000ff;fill-opacity:1;fill-rule:nonzero;stroke:none"
                   id="path146" /><path
                   d="m 245.035,276.688 c -1.531,0 -2.75,-1.188 -2.75,-2.672 0,-1.516 1.203,-2.735 2.703,-2.735 1.485,0 2.703,1.219 2.703,2.703 0,1.485 -1.218,2.704 -2.656,2.704 z"
                   style="fill:#0000ff;fill-opacity:1;fill-rule:nonzero;stroke:none"
                   id="path148" /><path
                   d="m 337.797,292.738 c -1.531,0 -2.75,-1.187 -2.75,-2.672 0,-1.515 1.203,-2.734 2.703,-2.734 1.484,0 2.703,1.219 2.703,2.703 0,1.485 -1.219,2.703 -2.656,2.703 z"
                   style="fill:#0000ff;fill-opacity:1;fill-rule:nonzero;stroke:none"
                   id="path150" /><path
                   d="m 129.039,269.25 115.949,18 92.75,35.078"
                   style="fill:none;stroke:#ff0000;stroke-opacity:1;stroke-width:2.25;stroke-linecap:round;stroke-linejoin:round;stroke-miterlimit:10;stroke-dasharray:15.75,11.25,15.75,11.25;stroke-dashoffset:0"
                   id="path152" /><path
                   d="m 129.117,273.289 c -2.297,0 -4.125,-1.781 -4.125,-4.016 0,-2.265 1.813,-4.078 4.047,-4.078 2.234,0 4.063,1.813 4.063,4.047 0,2.219 -1.829,4.047 -3.985,4.047 z"
                   style="fill:#ff0000;fill-opacity:1;fill-rule:nonzero;stroke:none"
                   id="path154" /><path
                   d="m 245.055,291.297 c -2.297,0 -4.125,-1.781 -4.125,-4.016 0,-2.265 1.812,-4.078 4.047,-4.078 2.234,0 4.062,1.813 4.062,4.047 0,2.219 -1.828,4.047 -3.984,4.047 z"
                   style="fill:#ff0000;fill-opacity:1;fill-rule:nonzero;stroke:none"
                   id="path156" /><path
                   d="m 337.816,326.379 c -2.296,0 -4.125,-1.781 -4.125,-4.016 0,-2.265 1.813,-4.078 4.047,-4.078 2.235,0 4.063,1.813 4.063,4.047 0,2.219 -1.828,4.047 -3.985,4.047 z"
                   style="fill:#ff0000;fill-opacity:1;fill-rule:nonzero;stroke:none"
                   id="path158" /><path
                   d="m 129.039,190.281 115.949,12 92.75,32.379"
                   style="fill:none;stroke:#ff0000;stroke-opacity:1;stroke-width:0.75;stroke-linecap:round;stroke-linejoin:round;stroke-miterlimit:10;stroke-dasharray:5.25,3.75,5.25,3.75;stroke-dashoffset:0"
                   id="path160" /><path
                   d="m 129.094,192.977 c -1.532,0 -2.75,-1.188 -2.75,-2.672 0,-1.516 1.203,-2.735 2.703,-2.735 1.484,0 2.703,1.219 2.703,2.703 0,1.485 -1.219,2.704 -2.656,2.704 z"
                   style="fill:#ff0000;fill-opacity:1;fill-rule:nonzero;stroke:none"
                   id="path162" /><path
                   d="m 245.035,204.988 c -1.531,0 -2.75,-1.187 -2.75,-2.672 0,-1.515 1.203,-2.734 2.703,-2.734 1.485,0 2.703,1.219 2.703,2.703 0,1.485 -1.218,2.703 -2.656,2.703 z"
                   style="fill:#ff0000;fill-opacity:1;fill-rule:nonzero;stroke:none"
                   id="path164" /><path
                   d="m 337.797,237.367 c -1.531,0 -2.75,-1.187 -2.75,-2.672 0,-1.515 1.203,-2.734 2.703,-2.734 1.484,0 2.703,1.219 2.703,2.703 0,1.484 -1.219,2.703 -2.656,2.703 z"
                   style="fill:#ff0000;fill-opacity:1;fill-rule:nonzero;stroke:none"
                   id="path166" /><path
                   d="m 129.039,279.18 115.949,18.398 92.75,34.922"
                   style="fill:none;stroke:#ff0000;stroke-opacity:1;stroke-width:0.75;stroke-linecap:round;stroke-linejoin:round;stroke-miterlimit:10;stroke-dasharray:5.25,3.75,5.25,3.75;stroke-dashoffset:0"
                   id="path168" /><path
                   d="m 129.094,281.887 c -1.532,0 -2.75,-1.188 -2.75,-2.672 0,-1.516 1.203,-2.735 2.703,-2.735 1.484,0 2.703,1.219 2.703,2.704 0,1.484 -1.219,2.703 -2.656,2.703 z"
                   style="fill:#ff0000;fill-opacity:1;fill-rule:nonzero;stroke:none"
                   id="path170" /><path
                   d="m 245.035,300.285 c -1.531,0 -2.75,-1.187 -2.75,-2.672 0,-1.515 1.203,-2.734 2.703,-2.734 1.485,0 2.703,1.219 2.703,2.703 0,1.484 -1.218,2.703 -2.656,2.703 z"
                   style="fill:#ff0000;fill-opacity:1;fill-rule:nonzero;stroke:none"
                   id="path172" /><path
                   d="m 337.797,335.195 c -1.531,0 -2.75,-1.187 -2.75,-2.672 0,-1.515 1.203,-2.734 2.703,-2.734 1.484,0 2.703,1.219 2.703,2.703 0,1.485 -1.219,2.703 -2.656,2.703 z"
                   style="fill:#ff0000;fill-opacity:1;fill-rule:nonzero;stroke:none"
                   id="path174" /><path
                   d="m 129.039,340.109 115.949,21.469 92.75,37.031"
                   style="fill:none;stroke:#ff0000;stroke-opacity:1;stroke-width:0.75;stroke-linecap:round;stroke-linejoin:round;stroke-miterlimit:10;stroke-dasharray:5.25,3.75,5.25,3.75;stroke-dashoffset:0"
                   id="path176" /><path
                   d="m 129.094,342.809 c -1.532,0 -2.75,-1.188 -2.75,-2.672 0,-1.516 1.203,-2.735 2.703,-2.735 1.484,0 2.703,1.219 2.703,2.703 0,1.485 -1.219,2.704 -2.656,2.704 z"
                   style="fill:#ff0000;fill-opacity:1;fill-rule:nonzero;stroke:none"
                   id="path178" /><path
                   d="m 245.035,364.277 c -1.531,0 -2.75,-1.187 -2.75,-2.672 0,-1.515 1.203,-2.734 2.703,-2.734 1.485,0 2.703,1.219 2.703,2.703 0,1.485 -1.218,2.703 -2.656,2.703 z"
                   style="fill:#ff0000;fill-opacity:1;fill-rule:nonzero;stroke:none"
                   id="path180" /><path
                   d="m 337.797,401.309 c -1.531,0 -2.75,-1.188 -2.75,-2.672 0,-1.516 1.203,-2.735 2.703,-2.735 1.484,0 2.703,1.219 2.703,2.703 0,1.485 -1.219,2.704 -2.656,2.704 z"
                   style="fill:#ff0000;fill-opacity:1;fill-rule:nonzero;stroke:none"
                   id="path182" /></g></g></g></g></g></g><g
       id="g184"><path
         d="m 353.629,321.199 0,1.156 c -0.266,-0.062 -0.328,-0.062 -0.422,-0.062 -0.453,0 -0.578,0.125 -0.578,0.547 l 0,4.672 c 0,1.484 -1.219,2.39 -3.281,2.39 -2.032,0 -3.438,-0.875 -3.516,-2.937 l 1.609,0 c 0.125,1.14 0.61,1.484 1.86,1.484 1.187,0 1.719,-0.328 1.719,-1.14 l 0,-0.344 c 0,-0.563 -0.188,-0.688 -1.25,-0.813 -1.891,-0.25 -2.172,-0.312 -2.688,-0.515 -0.969,-0.407 -1.609,-1.266 -1.609,-2.297 0,-1.516 1.203,-2.516 2.89,-2.516 1.078,0 2.203,0.469 2.766,1.063 0.078,-0.36 0.797,-0.938 1.453,-0.938 0.281,0 0.484,0.031 1.047,0.172 l 0,0.078 z m -2.609,2.875 c 0,-1.203 -1.063,-1.859 -2.36,-1.859 -1.047,0 -1.531,0.25 -1.531,1.156 0,0.891 0.469,1.156 1.891,1.375 1.406,0.188 1.703,0.25 2,0.391 l 0,-1.063 z m 5.375,-2.906 0,11.781 -1.61,0 0,-11.89 1.61,0 0,0.109 z m 3.562,0 0,11.781 -1.609,0 0,-11.89 1.609,0 0,0.109 z m 13.797,3.812 c 0,1.219 -0.109,1.985 -0.344,2.61 -0.547,1.375 -1.953,2.312 -3.515,2.312 -2.344,0 -3.985,-1.828 -3.985,-4.593 0,-2.75 1.594,-4.485 3.953,-4.485 1.922,0 3.375,1.188 3.735,3 l -1.61,0 c -0.406,-1.203 -1.015,-1.547 -2.078,-1.547 -1.39,0 -2.312,0.782 -2.344,2.594 l 6.188,0 0,0.109 z m -1.469,1.11 c 0,0 -0.203,0.094 -0.187,0.094 l -4.485,0 c 0.094,1.375 0.922,2.265 2.266,2.265 1.312,0 2.172,-0.969 2.172,-2.281 l 0.234,-0.078 z m 10.078,-4.922 0,11.781 -1.593,0 0,-4.453 0.234,0.078 c -0.563,0.86 -1.547,1.328 -2.672,1.328 -2.172,0 -3.75,-1.781 -3.75,-4.453 0,-2.844 1.547,-4.625 3.797,-4.625 1.156,0 2.047,0.453 2.766,1.5 l -0.235,0.078 0,-1.343 1.453,0 0,0.109 z m -1.593,4.156 c 0,-1.922 -0.797,-3.031 -2.204,-3.031 -1.468,0 -2.312,1.125 -2.312,3.062 0,1.954 0.844,3.079 2.297,3.079 1.453,0 2.219,-1.172 2.219,-3.11 z m 10.296,-4.156 0,8.5 -1.609,0 0,-4.734 c 0,-1.719 -0.75,-2.719 -2.141,-2.719 -1.046,0 -1.593,0.531 -1.593,1.531 l 0,5.922 -1.61,0 0,-6.453 c 0,-1.391 1.188,-2.391 2.828,-2.391 1.219,0 2.11,0.453 2.891,1.563 l -0.234,0.078 0,-1.406 1.468,0 0,0.109 z"
         style="fill:#ff0000;fill-opacity:1;fill-rule:nonzero;stroke:none"
         id="path186" /><path
         d="m 347.488,236.699 0,11.781 -1.609,0 0,-11.89 1.609,0 0,0.109 z m 9.297,4.125 c 0,2.906 -1.515,4.61 -3.922,4.61 -2.359,0 -3.922,-1.719 -3.922,-4.547 0,-2.813 1.547,-4.532 3.938,-4.532 2.344,0 3.906,1.719 3.906,4.469 z m -1.656,0.016 c 0,-1.969 -0.781,-3.031 -2.25,-3.031 -1.5,0 -2.281,1.046 -2.281,3.078 0,2.015 0.781,3.093 2.281,3.093 1.5,0 2.25,-1.046 2.25,-3.14 z m 13.453,4.359 -1.625,0 -1.687,-6.625 0.265,-0.015 -1.672,6.64 -1.859,0 -1.609,-6.625 0.265,-0.015 -1.75,6.64 -1.734,0 2.5,-8.609 1.703,0 1.656,6.687 -0.281,0 1.734,-6.687 1.719,0 2.531,8.609 -0.156,0 z"
         style="fill:#ff0000;fill-opacity:1;fill-rule:nonzero;stroke:none"
         id="path188" /><path
         d="m 357.223,340.938 0,6.296 c 0,1.5 -0.953,2.438 -2.516,2.438 -1.125,0 -1.906,-0.36 -2.562,-1.156 -0.422,0.75 -1.188,1.156 -2.282,1.156 -1.109,0 -1.968,-0.438 -2.687,-1.453 l 0.25,-0.078 0,1.297 -1.5,0 0,-8.61 1.609,0 0,5.375 c 0,1.219 0.75,2.078 1.844,2.078 0.984,0 1.406,-0.5 1.406,-1.562 l 0,-5.891 1.594,0 0,5.375 c 0,1.219 0.766,2.078 1.859,2.078 0.969,0 1.391,-0.515 1.391,-1.562 l 0,-5.891 1.594,0 0,0.11 z m 9.406,3.812 c 0,1.219 -0.109,1.984 -0.344,2.609 -0.547,1.375 -1.953,2.313 -3.515,2.313 -2.344,0 -3.985,-1.828 -3.985,-4.594 0,-2.75 1.594,-4.484 3.953,-4.484 1.922,0 3.375,1.187 3.735,3 l -1.61,0 c -0.406,-1.203 -1.015,-1.547 -2.078,-1.547 -1.39,0 -2.312,0.781 -2.344,2.594 l 6.188,0 0,0.109 z m -1.469,1.109 c 0,0 -0.203,0.094 -0.187,0.094 l -4.485,0 c 0.094,1.375 0.922,2.266 2.266,2.266 1.312,0 2.172,-0.969 2.172,-2.281 l 0.234,-0.079 z m 10.078,-4.921 0,11.781 -1.593,0 0,-4.453 0.234,0.078 c -0.563,0.859 -1.547,1.328 -2.672,1.328 -2.172,0 -3.75,-1.781 -3.75,-4.453 0,-2.844 1.547,-4.625 3.797,-4.625 1.156,0 2.047,0.453 2.766,1.5 l -0.235,0.078 0,-1.344 1.453,0 0,0.11 z m -1.593,4.156 c 0,-1.922 -0.797,-3.032 -2.204,-3.032 -1.468,0 -2.312,1.126 -2.312,3.063 0,1.953 0.844,3.078 2.297,3.078 1.453,0 2.219,-1.172 2.219,-3.109 z m 5.031,-4.156 0,8.5 -1.61,0 0,-8.61 1.61,0 0,0.11 z m 0.172,9.656 0,1.765 -1.938,0 0,-1.89 1.938,0 0,0.125 z m 8.656,-9.656 0,8.5 -1.609,0 0,-4.735 c 0,-1.719 -0.75,-2.719 -2.141,-2.719 -1.047,0 -1.594,0.532 -1.594,1.532 l 0,5.922 -1.609,0 0,-6.454 c 0,-1.39 1.187,-2.39 2.828,-2.39 1.219,0 2.109,0.453 2.891,1.562 l -0.235,0.078 0,-1.406 1.469,0 0,0.11 z m 13.344,0 0,6.296 c 0,1.5 -0.953,2.438 -2.516,2.438 -1.125,0 -1.906,-0.36 -2.562,-1.156 -0.422,0.75 -1.188,1.156 -2.282,1.156 -1.109,0 -1.968,-0.438 -2.687,-1.453 l 0.25,-0.078 0,1.297 -1.5,0 0,-8.61 1.609,0 0,5.375 c 0,1.219 0.75,2.078 1.844,2.078 0.984,0 1.406,-0.5 1.406,-1.562 l 0,-5.891 1.594,0 0,5.375 c 0,1.219 0.766,2.078 1.859,2.078 0.969,0 1.391,-0.515 1.391,-1.562 l 0,-5.891 1.594,0 0,0.11 z"
         style="fill:#ff0000;fill-opacity:1;fill-rule:nonzero;stroke:none"
         id="path190" /><path
         d="m 352.848,395.848 0,6.343 c 0,1.407 -1.141,2.391 -2.766,2.391 -1.187,0 -2.016,-0.391 -2.797,-1.422 l 0.235,-0.078 0,4.547 -1.61,0 0,-11.891 1.61,0 0,4.735 c 0,1.718 0.765,2.718 2.14,2.718 0.938,0 1.578,-0.421 1.578,-1.531 l 0,-5.922 1.61,0 0,0.11 z m 3.578,0 0,8.5 -1.61,0 0,-8.61 1.61,0 0,0.11 z m 0.172,9.656 0,1.766 -1.938,0 0,-1.891 1.938,0 0,0.125 z m 8.765,-8.281 0,7.125 -1.5,0 0,-1.328 0.235,0.078 c -0.672,1 -1.578,1.484 -2.657,1.484 -2.125,0 -3.718,-1.906 -3.718,-4.625 0,-2.641 1.64,-4.453 3.609,-4.453 1.047,0 1.891,0.469 2.766,1.531 l -0.235,0.078 0,-0.562 c 0,-2.219 -0.765,-2.953 -2.328,-2.953 -1.047,0 -1.734,0.265 -1.922,1.406 l -1.625,0 c 0.157,-1.703 1.532,-2.75 3.5,-2.75 2.625,0 3.875,1.281 3.875,4.969 z m -1.64,2.765 c 0,-2 -0.719,-3.031 -2.125,-3.031 -1.453,0 -2.203,1.047 -2.203,3.078 0,2.016 0.765,3.094 2.187,3.094 1.438,0 2.141,-1.109 2.141,-3.141 z m 10.5,-4.14 0,6.343 c 0,1.407 -1.141,2.391 -2.766,2.391 -1.187,0 -2.016,-0.391 -2.797,-1.422 l 0.235,-0.078 0,4.547 -1.61,0 0,-11.891 1.61,0 0,4.735 c 0,1.718 0.765,2.718 2.14,2.718 0.938,0 1.578,-0.421 1.578,-1.531 l 0,-5.922 1.61,0 0,0.11 z"
         style="fill:#ff0000;fill-opacity:1;fill-rule:nonzero;stroke:none"
         id="path192" /><path
         d="m 353.629,210.992 0,1.156 c -0.266,-0.062 -0.328,-0.062 -0.422,-0.062 -0.453,0 -0.578,0.125 -0.578,0.547 l 0,4.672 c 0,1.484 -1.219,2.39 -3.281,2.39 -2.032,0 -3.438,-0.875 -3.516,-2.937 l 1.609,0 c 0.125,1.14 0.61,1.484 1.86,1.484 1.187,0 1.719,-0.328 1.719,-1.14 l 0,-0.344 c 0,-0.563 -0.188,-0.688 -1.25,-0.813 -1.891,-0.25 -2.172,-0.312 -2.688,-0.515 -0.969,-0.407 -1.609,-1.266 -1.609,-2.297 0,-1.516 1.203,-2.516 2.89,-2.516 1.078,0 2.203,0.469 2.766,1.063 0.078,-0.36 0.797,-0.938 1.453,-0.938 0.281,0 0.484,0.031 1.047,0.172 l 0,0.078 z m -2.609,2.875 c 0,-1.203 -1.063,-1.859 -2.36,-1.859 -1.047,0 -1.531,0.25 -1.531,1.156 0,0.891 0.469,1.156 1.891,1.375 1.406,0.188 1.703,0.25 2,0.391 l 0,-1.063 z m 5.375,-2.906 0,11.781 -1.61,0 0,-11.89 1.61,0 0,0.109 z m 3.562,0 0,11.781 -1.609,0 0,-11.89 1.609,0 0,0.109 z m 13.797,3.812 c 0,1.219 -0.109,1.985 -0.344,2.61 -0.547,1.375 -1.953,2.312 -3.515,2.312 -2.344,0 -3.985,-1.828 -3.985,-4.593 0,-2.75 1.594,-4.485 3.953,-4.485 1.922,0 3.375,1.188 3.735,3 l -1.61,0 c -0.406,-1.203 -1.015,-1.547 -2.078,-1.547 -1.39,0 -2.312,0.782 -2.344,2.594 l 6.188,0 0,0.109 z m -1.469,1.11 c 0,0 -0.203,0.094 -0.187,0.094 l -4.485,0 c 0.094,1.375 0.922,2.265 2.266,2.265 1.312,0 2.172,-0.969 2.172,-2.281 l 0.234,-0.078 z m 10.078,-4.922 0,11.781 -1.593,0 0,-4.453 0.234,0.078 c -0.563,0.86 -1.547,1.328 -2.672,1.328 -2.172,0 -3.75,-1.781 -3.75,-4.453 0,-2.844 1.547,-4.625 3.797,-4.625 1.156,0 2.047,0.453 2.766,1.5 l -0.235,0.078 0,-1.343 1.453,0 0,0.109 z m -1.593,4.156 c 0,-1.922 -0.797,-3.031 -2.204,-3.031 -1.468,0 -2.312,1.125 -2.312,3.062 0,1.954 0.844,3.079 2.297,3.079 1.453,0 2.219,-1.172 2.219,-3.11 z m 10.296,-4.156 0,8.5 -1.609,0 0,-4.734 c 0,-1.719 -0.75,-2.719 -2.141,-2.719 -1.046,0 -1.593,0.531 -1.593,1.531 l 0,5.922 -1.61,0 0,-6.453 c 0,-1.391 1.188,-2.391 2.828,-2.391 1.219,0 2.11,0.453 2.891,1.563 l -0.234,0.078 0,-1.406 1.468,0 0,0.109 z"
         style="fill:#0000ff;fill-opacity:1;fill-rule:nonzero;stroke:none"
         id="path194" /><path
         d="m 347.488,142.301 0,11.781 -1.609,0 0,-11.891 1.609,0 0,0.11 z m 9.297,4.125 c 0,2.906 -1.515,4.609 -3.922,4.609 -2.359,0 -3.922,-1.719 -3.922,-4.547 0,-2.812 1.547,-4.531 3.938,-4.531 2.344,0 3.906,1.719 3.906,4.469 z m -1.656,0.015 c 0,-1.968 -0.781,-3.031 -2.25,-3.031 -1.5,0 -2.281,1.047 -2.281,3.078 0,2.016 0.781,3.094 2.281,3.094 1.5,0 2.25,-1.047 2.25,-3.141 z m 13.453,4.36 -1.625,0 -1.687,-6.625 0.265,-0.016 -1.672,6.641 -1.859,0 -1.609,-6.625 0.265,-0.016 -1.75,6.641 -1.734,0 2.5,-8.61 1.703,0 1.656,6.688 -0.281,0 1.734,-6.688 1.719,0 2.531,8.61 -0.156,0 z"
         style="fill:#0000ff;fill-opacity:1;fill-rule:nonzero;stroke:none"
         id="path196" /><path
         d="m 357.223,195.27 0,6.296 c 0,1.5 -0.953,2.438 -2.516,2.438 -1.125,0 -1.906,-0.359 -2.562,-1.156 -0.422,0.75 -1.188,1.156 -2.282,1.156 -1.109,0 -1.968,-0.438 -2.687,-1.453 l 0.25,-0.078 0,1.297 -1.5,0 0,-8.61 1.609,0 0,5.375 c 0,1.219 0.75,2.078 1.844,2.078 0.984,0 1.406,-0.5 1.406,-1.562 l 0,-5.891 1.594,0 0,5.375 c 0,1.219 0.766,2.078 1.859,2.078 0.969,0 1.391,-0.515 1.391,-1.562 l 0,-5.891 1.594,0 0,0.11 z m 9.406,3.812 c 0,1.219 -0.109,1.984 -0.344,2.609 -0.547,1.375 -1.953,2.313 -3.515,2.313 -2.344,0 -3.985,-1.828 -3.985,-4.594 0,-2.75 1.594,-4.484 3.953,-4.484 1.922,0 3.375,1.187 3.735,3 l -1.61,0 c -0.406,-1.203 -1.015,-1.547 -2.078,-1.547 -1.39,0 -2.312,0.781 -2.344,2.594 l 6.188,0 0,0.109 z m -1.469,1.109 c 0,0 -0.203,0.094 -0.187,0.094 l -4.485,0 c 0.094,1.375 0.922,2.266 2.266,2.266 1.312,0 2.172,-0.969 2.172,-2.281 l 0.234,-0.079 z m 10.078,-4.921 0,11.781 -1.593,0 0,-4.453 0.234,0.078 c -0.563,0.859 -1.547,1.328 -2.672,1.328 -2.172,0 -3.75,-1.781 -3.75,-4.453 0,-2.844 1.547,-4.625 3.797,-4.625 1.156,0 2.047,0.453 2.766,1.5 l -0.235,0.078 0,-1.344 1.453,0 0,0.11 z m -1.593,4.156 c 0,-1.922 -0.797,-3.031 -2.204,-3.031 -1.468,0 -2.312,1.125 -2.312,3.062 0,1.953 0.844,3.078 2.297,3.078 1.453,0 2.219,-1.172 2.219,-3.109 z m 5.031,-4.156 0,8.5 -1.61,0 0,-8.61 1.61,0 0,0.11 z m 0.172,9.656 0,1.765 -1.938,0 0,-1.89 1.938,0 0,0.125 z m 8.656,-9.656 0,8.5 -1.609,0 0,-4.735 c 0,-1.719 -0.75,-2.719 -2.141,-2.719 -1.047,0 -1.594,0.532 -1.594,1.532 l 0,5.922 -1.609,0 0,-6.454 c 0,-1.39 1.187,-2.39 2.828,-2.39 1.219,0 2.109,0.453 2.891,1.562 l -0.235,0.078 0,-1.406 1.469,0 0,0.11 z m 13.344,0 0,6.296 c 0,1.5 -0.953,2.438 -2.516,2.438 -1.125,0 -1.906,-0.359 -2.562,-1.156 -0.422,0.75 -1.188,1.156 -2.282,1.156 -1.109,0 -1.968,-0.438 -2.687,-1.453 l 0.25,-0.078 0,1.297 -1.5,0 0,-8.61 1.609,0 0,5.375 c 0,1.219 0.75,2.078 1.844,2.078 0.984,0 1.406,-0.5 1.406,-1.562 l 0,-5.891 1.594,0 0,5.375 c 0,1.219 0.766,2.078 1.859,2.078 0.969,0 1.391,-0.515 1.391,-1.562 l 0,-5.891 1.594,0 0,0.11 z"
         style="fill:#0000ff;fill-opacity:1;fill-rule:nonzero;stroke:none"
         id="path198" /><path
         d="m 352.848,287.281 0,6.344 c 0,1.406 -1.141,2.391 -2.766,2.391 -1.187,0 -2.016,-0.391 -2.797,-1.422 l 0.235,-0.078 0,4.546 -1.61,0 0,-11.89 1.61,0 0,4.734 c 0,1.719 0.765,2.719 2.14,2.719 0.938,0 1.578,-0.422 1.578,-1.531 l 0,-5.922 1.61,0 0,0.109 z m 3.578,0 0,8.5 -1.61,0 0,-8.609 1.61,0 0,0.109 z m 0.172,9.657 0,1.765 -1.938,0 0,-1.891 1.938,0 0,0.126 z m 8.765,-8.282 0,7.125 -1.5,0 0,-1.328 0.235,0.078 c -0.672,1 -1.578,1.485 -2.657,1.485 -2.125,0 -3.718,-1.907 -3.718,-4.625 0,-2.641 1.64,-4.453 3.609,-4.453 1.047,0 1.891,0.468 2.766,1.531 l -0.235,0.078 0,-0.563 c 0,-2.218 -0.765,-2.953 -2.328,-2.953 -1.047,0 -1.734,0.266 -1.922,1.407 l -1.625,0 c 0.157,-1.704 1.532,-2.75 3.5,-2.75 2.625,0 3.875,1.281 3.875,4.968 z m -1.64,2.766 c 0,-2 -0.719,-3.031 -2.125,-3.031 -1.453,0 -2.203,1.047 -2.203,3.078 0,2.015 0.765,3.093 2.187,3.093 1.438,0 2.141,-1.109 2.141,-3.14 z m 10.5,-4.141 0,6.344 c 0,1.406 -1.141,2.391 -2.766,2.391 -1.187,0 -2.016,-0.391 -2.797,-1.422 l 0.235,-0.078 0,4.546 -1.61,0 0,-11.89 1.61,0 0,4.734 c 0,1.719 0.765,2.719 2.14,2.719 0.938,0 1.578,-0.422 1.578,-1.531 l 0,-5.922 1.61,0 0,0.109 z"
         style="fill:#0000ff;fill-opacity:1;fill-rule:nonzero;stroke:none"
         id="path200" /></g><g
       id="g202"><g
         id="g204"
         clip-path="url(#clipPath206)"><g
           id="g210"><g
             id="g212"><g
               id="g214"
               clip-path="url(#clipPath216)"><g
                 id="g220"><path
                   d="m 129.039,287.262 115.941,0 0,-18.012 -115.941,0 0,18.012 z"
                   style="fill:#ff0000;fill-opacity:0.314;fill-rule:nonzero;stroke:none"
                   id="path222" /><path
                   d="m 129.039,287.262 115.941,0 0,-18.012 -115.941,0 0,18.012 z"
                   style="fill:none;stroke:#ff0000;stroke-opacity:1;stroke-width:0.75;stroke-linecap:round;stroke-linejoin:round;stroke-miterlimit:10;stroke-dasharray:none"
                   id="path224" /><path
                   d="m 244.988,322.328 92.75,0 0,-35.078 -92.75,0 0,35.078 z"
                   style="fill:#ff0000;fill-opacity:0.314;fill-rule:nonzero;stroke:none"
                   id="path226" /><path
                   d="m 244.988,322.328 92.75,0 0,-35.078 -92.75,0 0,35.078 z"
                   style="fill:none;stroke:#ff0000;stroke-opacity:1;stroke-width:0.75;stroke-linecap:round;stroke-linejoin:round;stroke-miterlimit:10;stroke-dasharray:none"
                   id="path228" /><path
                   d="m 129.039,198.359 115.941,0 0,-33.5 -115.941,0 0,33.5 z"
                   style="fill:#0000ff;fill-opacity:0.314;fill-rule:nonzero;stroke:none"
                   id="path230" /><path
                   d="m 129.039,198.359 115.941,0 0,-33.5 -115.941,0 0,33.5 z"
                   style="fill:none;stroke:#0000ff;stroke-opacity:1;stroke-width:0.75;stroke-linecap:round;stroke-linejoin:round;stroke-miterlimit:10;stroke-dasharray:none"
                   id="path232" /><path
                   d="m 244.988,213.719 92.75,0 0,-15.359 -92.75,0 0,15.359 z"
                   style="fill:#0000ff;fill-opacity:0.314;fill-rule:nonzero;stroke:none"
                   id="path234" /><path
                   d="m 244.988,213.719 92.75,0 0,-15.359 -92.75,0 0,15.359 z"
                   style="fill:none;stroke:#0000ff;stroke-opacity:1;stroke-width:0.75;stroke-linecap:round;stroke-linejoin:round;stroke-miterlimit:10;stroke-dasharray:none"
                   id="path236" /><path
                   d="m 133.633,203.305 0,8.64 -1.36,0 c -0.296,-1.14 -1.031,-1.515 -2.64,-1.515 l 0,-1.375 2.047,0 0,-5.875 1.953,0 0,0.125 z"
                   style="fill:#0000ff;fill-opacity:1;fill-rule:nonzero;stroke:none"
                   id="path238" /><path
                   d="m 138.336,203.305 0,1.89 -2.078,0 0,-2.015 2.078,0 0,0.125 z"
                   style="fill:#0000ff;fill-opacity:1;fill-rule:nonzero;stroke:none"
                   id="path240" /><path
                   d="m 145.359,205.195 0,1.532 -0.875,0 0,5.218 -2.187,0 -3.188,-5.312 0,-1.563 3.407,0 0,-1.89 1.968,0 0,1.89 0.875,0 0,0.125 z m -2.687,1.532 -2,0 2.078,3.406 -0.234,0.094 0,-3.5 0.156,0 z"
                   style="fill:#0000ff;fill-opacity:1;fill-rule:nonzero;stroke:none"
                   id="path242" /><path
                   d="m 150.312,203.305 0,8.64 -1.359,0 c -0.297,-1.14 -1.031,-1.515 -2.641,-1.515 l 0,-1.375 2.047,0 0,-5.875 1.953,0 0,0.125 z"
                   style="fill:#0000ff;fill-opacity:1;fill-rule:nonzero;stroke:none"
                   id="path244" /><path
                   d="m 251.242,222.914 c 0,2.406 -0.578,4.578 -3.062,4.578 -2.438,0 -3.078,-2.094 -3.078,-4.531 0,-2.375 0.609,-4.531 3.078,-4.531 1.718,0 3.062,1.125 3.062,4.484 z m -1.969,0.031 c 0,-2.39 -0.203,-2.812 -1.093,-2.812 -0.86,0 -1.125,0.297 -1.125,2.828 0,2.484 0.218,2.906 1.125,2.906 0.828,0 1.093,-0.281 1.093,-2.922 z"
                   style="fill:#0000ff;fill-opacity:1;fill-rule:nonzero;stroke:none"
                   id="path246" /><path
                   d="m 254.273,218.664 0,1.891 -2.078,0 0,-2.016 2.078,0 0,0.125 z"
                   style="fill:#0000ff;fill-opacity:1;fill-rule:nonzero;stroke:none"
                   id="path248" /><path
                   d="m 261.266,221.602 c 0,1.625 -1.141,2.812 -2.61,2.812 -0.687,0 -1.25,-0.25 -1.781,-0.797 l 0.234,-0.094 c 0.063,1.719 0.235,2.344 1.282,2.344 0.531,0 0.671,-0.078 0.953,-0.75 l 1.797,0 c -0.235,1.531 -1.313,2.375 -2.703,2.375 -2.063,0 -3.297,-1.719 -3.297,-4.781 0,-1.453 0.234,-2.391 0.671,-3.063 0.485,-0.796 1.469,-1.218 2.485,-1.218 1.687,0 2.969,1.328 2.969,3.172 z m -1.875,-0.11 c 0,-0.906 -0.407,-1.359 -1.141,-1.359 -0.781,0 -1.172,0.422 -1.172,1.328 0,0.937 0.391,1.359 1.172,1.359 0.781,0 1.141,-0.39 1.141,-1.328 z"
                   style="fill:#0000ff;fill-opacity:1;fill-rule:nonzero;stroke:none"
                   id="path250" /><path
                   d="m 267.922,221.57 c 0,1.735 -1.219,2.985 -2.797,2.985 -0.563,0 -1.078,-0.188 -1.297,-0.36 l 0.203,1.36 3.547,0 0,1.75 -4.797,0 -0.812,-5 1.75,0 c 0.25,0.547 0.5,0.656 1.015,0.656 0.86,0 1.219,-0.406 1.219,-1.438 0,-1 -0.375,-1.39 -1.219,-1.39 -0.734,0 -1.046,0.25 -1.046,1.062 l -1.922,0 c 0,-1.625 1.281,-2.765 2.937,-2.765 1.828,0 3.219,1.297 3.219,3.14 z"
                   style="fill:#0000ff;fill-opacity:1;fill-rule:nonzero;stroke:none"
                   id="path252" /><path
                   d="m 135.305,296.445 c 0,2.407 -0.578,4.578 -3.063,4.578 -2.437,0 -3.078,-2.093 -3.078,-4.531 0,-2.375 0.609,-4.531 3.078,-4.531 1.719,0 3.063,1.125 3.063,4.484 z m -1.969,0.032 c 0,-2.391 -0.203,-2.813 -1.094,-2.813 -0.859,0 -1.125,0.297 -1.125,2.828 0,2.485 0.219,2.906 1.125,2.906 0.828,0 1.094,-0.281 1.094,-2.921 z"
                   style="fill:#ff0000;fill-opacity:1;fill-rule:nonzero;stroke:none"
                   id="path254" /><path
                   d="m 138.336,292.195 0,1.891 -2.078,0 0,-2.016 2.078,0 0,0.125 z"
                   style="fill:#ff0000;fill-opacity:1;fill-rule:nonzero;stroke:none"
                   id="path256" /><path
                   d="m 145.438,299.383 0,1.453 -6.266,0 0,-1.75 4.062,0 c -0.296,-0.328 -1.343,-1.969 -1.703,-2.719 -0.578,-1.234 -0.89,-2.359 -1.125,-4.297 l 1.969,0 c 0.172,2.813 1,4.782 3.063,7.266 l 0,0.047 z"
                   style="fill:#ff0000;fill-opacity:1;fill-rule:nonzero;stroke:none"
                   id="path258" /><path
                   d="m 152,295.133 c 0,1.625 -1.141,2.812 -2.609,2.812 -0.688,0 -1.25,-0.25 -1.782,-0.797 l 0.235,-0.093 c 0.062,1.718 0.234,2.343 1.281,2.343 0.531,0 0.672,-0.078 0.953,-0.75 l 1.797,0 c -0.234,1.532 -1.313,2.375 -2.703,2.375 -2.063,0 -3.297,-1.718 -3.297,-4.781 0,-1.453 0.234,-2.39 0.672,-3.062 0.484,-0.797 1.469,-1.219 2.484,-1.219 1.688,0 2.969,1.328 2.969,3.172 z m -1.875,-0.11 c 0,-0.906 -0.406,-1.359 -1.141,-1.359 -0.781,0 -1.172,0.422 -1.172,1.328 0,0.938 0.391,1.36 1.172,1.36 0.782,0 1.141,-0.391 1.141,-1.329 z"
                   style="fill:#ff0000;fill-opacity:1;fill-rule:nonzero;stroke:none"
                   id="path260" /><path
                   d="m 249.57,327.273 0,8.641 -1.359,0 c -0.297,-1.141 -1.031,-1.516 -2.641,-1.516 l 0,-1.375 2.047,0 0,-5.875 1.953,0 0,0.125 z"
                   style="fill:#ff0000;fill-opacity:1;fill-rule:nonzero;stroke:none"
                   id="path262" /><path
                   d="m 254.273,327.273 0,1.891 -2.078,0 0,-2.016 2.078,0 0,0.125 z"
                   style="fill:#ff0000;fill-opacity:1;fill-rule:nonzero;stroke:none"
                   id="path264" /><path
                   d="m 261.297,329.164 0,1.531 -0.875,0 0,5.219 -2.188,0 -3.187,-5.312 0,-1.563 3.406,0 0,-1.891 1.969,0 0,1.891 0.875,0 0,0.125 z m -2.688,1.531 -2,0 2.079,3.407 -0.235,0.093 0,-3.5 0.156,0 z"
                   style="fill:#ff0000;fill-opacity:1;fill-rule:nonzero;stroke:none"
                   id="path266" /><path
                   d="m 268.047,334.461 0,1.453 -6.266,0 0,-1.75 4.063,0 c -0.297,-0.328 -1.344,-1.969 -1.703,-2.719 -0.579,-1.234 -0.891,-2.359 -1.125,-4.297 l 1.968,0 c 0.172,2.813 1,4.782 3.063,7.266 l 0,0.047 z"
                   style="fill:#ff0000;fill-opacity:1;fill-rule:nonzero;stroke:none"
                   id="path268" /></g></g></g></g></g></g><text
       xml:space="preserve"
       style="font-size:16px;font-style:normal;font-variant:normal;font-weight:normal;font-stretch:normal;line-height:125%;letter-spacing:0px;word-spacing:0px;fill:#ff0000;fill-opacity:1;stroke:none;font-family:Liberation Sans;-inkscape-font-specification:Liberation Sans"
       x="73.729874"
       y="-294.91949"
       id="text3284"
       sodipodi:linespacing="125%"
       transform="scale(1,-1)"><tspan
         sodipodi:role="line"
         id="tspan3286"
         x="73.729874"
         y="-294.91949">Females</tspan><tspan
         sodipodi:role="line"
         x="73.729874"
         y="-274.91949"
         id="tspan3288">HMD</tspan></text>
<text
       xml:space="preserve"
       style="font-size:16px;font-style:normal;font-variant:normal;font-weight:normal;font-stretch:normal;line-height:125%;letter-spacing:0px;word-spacing:0px;fill:#0000ff;fill-opacity:1;stroke:none;font-family:Liberation Sans;-inkscape-font-specification:Liberation Sans"
       x="77.199684"
       y="-176.90373"
       id="text3284-0"
       sodipodi:linespacing="125%"
       transform="scale(1,-1)"><tspan
         sodipodi:role="line"
         id="tspan3286-8"
         x="77.199684"
         y="-176.90373">Males</tspan><tspan
         sodipodi:role="line"
         x="77.199684"
         y="-156.90373"
         id="tspan3288-7">HMD</tspan></text>
<text
       xml:space="preserve"
       style="font-size:20px;font-style:normal;font-variant:normal;font-weight:normal;font-stretch:normal;line-height:125%;letter-spacing:0px;word-spacing:0px;fill:#000000;fill-opacity:1;stroke:none;font-family:Liberation Sans;-inkscape-font-specification:Liberation Sans"
       x="15.096639"
       y="-448.11935"
       id="text3314"
       sodipodi:linespacing="125%"
       transform="scale(1,-1)"><tspan
         sodipodi:role="line"
         id="tspan3316"
         x="15.096639"
         y="-448.11935">e(50)</tspan></text>
</g></svg>